<svg xmlns="http://www.w3.org/2000/svg" width="32" height="32" viewBox="0 0 32 32">
    <g fill="none" fill-rule="evenodd">
        <path d="M0 1h32v32H0z"/>
        <g fill="#555">
            <path d="M18.407 29.364c0-.457-.16-.81-.482-1.057-.321-.247-.901-.497-1.74-.75-.837-.252-1.504-.533-2-.843-.947-.595-1.42-1.371-1.42-2.328 0-.838.341-1.529 1.024-2.072.684-.543 1.57-.814 2.661-.814.724 0 1.37.133 1.936.4a3.177 3.177 0 0 1 1.336 1.14c.323.492.485 1.039.485 1.639h-1.8c0-.543-.17-.968-.51-1.275-.34-.308-.828-.461-1.461-.461-.59 0-1.049.126-1.375.378-.326.253-.49.605-.49 1.058 0 .38.177.698.53.953.352.255.932.503 1.742.743.81.24 1.46.514 1.95.821.49.308.85.66 1.079 1.058.228.397.342.863.342 1.396 0 .867-.332 1.556-.996 2.068-.664.512-1.565.768-2.704.768a5.08 5.08 0 0 1-2.075-.418c-.63-.279-1.121-.663-1.471-1.154-.35-.49-.525-1.062-.525-1.714h1.807c0 .59.195 1.048.586 1.371.39.324.95.486 1.678.486.629 0 1.102-.127 1.418-.382.317-.255.475-.592.475-1.01zM15.298 1.88l-.628-.465h.774l.237-.763.237.763h.773l-.627.465.235.753-.618-.465-.618.465.235-.753zm-3.603 1.414l.618-.466.617.466-.234-.753.627-.465h-.774l-.237-.763-.237.763h-.773l.627.465-.234.753zm-2.077.66l-.237.764-.774-.001.628.465-.236.753.619-.466.618.466-.235-.753.627-.465h-.773l-.237-.763zm-.674 4.817l.618.466-.235-.753.628-.466H9.18l-.237-.762-.237.764-.773-.002.627.466-.235.753.618-.466zm.91 2.549l-.236-.763-.237.764-.774-.001.628.465-.236.753.619-.466.618.466-.235-.753.627-.465h-.773zm2.695 2.64l-.237-.762-.236.764-.774-.001.627.465-.234.753.618-.465.617.465-.234-.753.627-.465h-.774zm3.369 1.322l-.237-.763-.237.764-.774-.001.628.465-.235.753.618-.465.618.465-.235-.753.627-.465h-.773zm3.368-1.321l-.237-.763-.237.764-.773-.001.627.465-.235.753.618-.465.619.465-.236-.753.628-.465h-.774zm2.695-2.641l-.237-.763-.237.764-.773-.001.628.465-.236.753.618-.466.618.466-.235-.753.628-.465h-.774zm2.121-3.302h-.774l-.237-.762-.236.763h-.774l.628.465-.235.753.617-.467.618.467-.235-.753.628-.466zm-2.976-2.083l.618-.466.618.466-.235-.753.628-.465h-.774l-.237-.763-.237.764h-.773l.628.464-.236.753zm-2.077-4.622l-.236.763-.774-.001.627.466-.235.753.619-.467.617.467-.235-.753.628-.466h-.775l-.236-.762z"/>
        </g>
    </g>
</svg>