<svg id="Layer_1" data-name="Layer 1" xmlns="http://www.w3.org/2000/svg" xmlns:xlink="http://www.w3.org/1999/xlink" viewBox="0 0 1366 394.25"><defs><style>.cls-1{fill:#080708;}.cls-2{fill:none;}.cls-3{fill:#fdca40;}.cls-4{fill:#3772ff;}.cls-5{fill:url(#linear-gradient);}.cls-6{fill:#df2935;}.cls-7{fill:url(#linear-gradient-2);}.cls-8{font-size:313.47px;fill:#fff;font-family:Roboto-Regular, Roboto;}</style><linearGradient id="linear-gradient" x1="81.54" y1="231.06" x2="258.26" y2="231.06" gradientTransform="translate(339.8 462.12) rotate(-180)" gradientUnits="userSpaceOnUse"><stop offset="0" stop-color="#3772ff"/><stop offset="0.13" stop-color="#3670fb"/><stop offset="0.26" stop-color="#346bef"/><stop offset="0.38" stop-color="#2f62dc"/><stop offset="0.5" stop-color="#2956c0"/><stop offset="0.63" stop-color="#22469d"/><stop offset="0.75" stop-color="#183271"/><stop offset="0.87" stop-color="#0d1b3d"/><stop offset="0.99" stop-color="#010103"/><stop offset="1"/></linearGradient><linearGradient id="linear-gradient-2" x1="387.22" y1="235.83" x2="563.94" y2="235.83" gradientTransform="translate(951.15 471.67) rotate(-180)" gradientUnits="userSpaceOnUse"><stop offset="0" stop-color="#3772ff"/><stop offset="0" stop-color="#3b70fa"/><stop offset="0" stop-color="#5d61d1"/><stop offset="0" stop-color="#7c54ac"/><stop offset="0" stop-color="#97488c"/><stop offset="0" stop-color="#ae3e70"/><stop offset="0" stop-color="#c0375a"/><stop offset="0" stop-color="#ce3049"/><stop offset="0" stop-color="#d82c3e"/><stop offset="0" stop-color="#dd2a37"/><stop offset="0" stop-color="#df2935"/><stop offset="0.14" stop-color="#db2834"/><stop offset="0.27" stop-color="#cf2631"/><stop offset="0.41" stop-color="#bc232d"/><stop offset="0.54" stop-color="#a01d26"/><stop offset="0.67" stop-color="#7d171e"/><stop offset="0.8" stop-color="#510f13"/><stop offset="0.93" stop-color="#1e0607"/><stop offset="1"/></linearGradient></defs><rect class="cls-1" width="1366" height="362.99"/><path class="cls-2" d="M110,215.73" transform="translate(-29 -24.84)"/><rect class="cls-3" x="52.54" y="42.99" width="482.4" height="23.88"/><rect class="cls-4" x="-23.54" y="223.89" width="234.03" height="23.88" transform="translate(300.31 117.52) rotate(90)"/><rect class="cls-5" x="81.54" y="219.12" width="176.72" height="23.88" transform="translate(310.8 437.28) rotate(180)"/><rect class="cls-4" x="129.3" y="223.89" width="234.03" height="23.88" transform="translate(453.15 -35.32) rotate(90)"/><polygon class="cls-3" points="291.38 236.74 324.78 180.76 324.78 239.56 257.92 239.56 257.92 180.7 291.38 236.74"/><polygon class="cls-3" points="291.38 324.21 324.78 268.23 324.78 327.03 257.92 327.03 257.92 268.17 291.38 324.21"/><polygon class="cls-3" points="291.38 149.26 324.78 93.29 324.78 152.09 257.92 152.09 257.92 93.23 291.38 149.26"/><rect class="cls-6" x="282.14" y="223.89" width="234.03" height="23.88" transform="translate(605.99 -188.16) rotate(90)"/><rect class="cls-7" x="387.22" y="223.89" width="176.72" height="23.88" transform="translate(922.15 446.83) rotate(180)"/><rect class="cls-6" x="434.98" y="223.89" width="234.03" height="23.88" transform="translate(758.83 -341) rotate(90)"/><text class="cls-8" transform="translate(553 309.31)">CARS</text></svg>